<svg xmlns="http://www.w3.org/2000/svg" viewBox="0 0 512 512" width="512" height="512">
  <defs>
    <linearGradient id="grad1" x1="0%" y1="0%" x2="100%" y2="0%">
      <stop offset="0%" style="stop-color:#0288d1;stop-opacity:1" />
      <stop offset="100%" style="stop-color:#00bfa5;stop-opacity:1" />
    </linearGradient>
  </defs>
  <circle cx="256" cy="256" r="240" fill="#e1f5fe" stroke="url(#grad1)" stroke-width="20"/>
  <path d="M150 150 L220 150 C260 150 260 190 220 190 L150 190 Z M150 190 L230 190 C270 190 270 230 230 230 L150 230 Z M150 150 L150 230" fill="none" stroke="#01579b" stroke-width="25" stroke-linecap="round" stroke-linejoin="round"/>
  <path d="M280 150 L360 150 L320 230 L320 150" fill="none" stroke="#01579b" stroke-width="25" stroke-linecap="round" stroke-linejoin="round"/>
  <path d="M180 300 A80 80 0 0 1 332 300" fill="none" stroke="#00bfa5" stroke-width="30" stroke-linecap="round"/>
  <rect x="236" y="300" width="40" height="100" rx="10" fill="#0288d1"/>
  <circle cx="256" cy="280" r="15" fill="#fff"/>
  <text x="50%" y="460" text-anchor="middle" font-family="Arial, sans-serif" font-weight="bold" font-size="60" fill="#01579b">BALI TOTAL CLEAN</text>
</svg>
